<?xml version="1.0" encoding="UTF-8"?>
<svg width="168" height="192" version="1.1" viewBox="-6 0 84 96" xmlns="http://www.w3.org/2000/svg">
<g transform="translate(-68.162 -71)">
<path d="m66.162 75h48l14 14h14v70h-76z" fill="#808080" stroke="#808080" stroke-linecap="round" stroke-linejoin="round" stroke-width="8" style="paint-order:markers stroke fill"/>
<rect x="66.162" y="147" width="76" height="16" stroke="#4d4d4d" stroke-linecap="round" stroke-linejoin="round" stroke-width="8" style="paint-order:markers stroke fill"/>
<g transform="matrix(1.0396 0 0 .99445 -6.2081 -1.4846)" stroke-linecap="round" stroke-linejoin="round">
<path d="m87.084 103.06c-3.8562 4.2e-4 -5.4794 4.9194-2.3809 7.2148l19.078 14.123c1.414 1.0466 3.3458 1.0466 4.7598 0l19.078-14.123c3.0986-2.2954 1.4753-7.2144-2.3809-7.2148z" color="#000000" fill="#333" style="-inkscape-stroke:none;paint-order:markers stroke fill"/>
<path d="m87.084 107.06c-1.6048 1.8e-4 -2.8207 0.85354-3.4727 2.0138 0.26146 0.44304 0.6215 0.85246 1.0919 1.201l19.078 14.123c1.414 1.0466 3.3459 1.0466 4.7599 0l19.078-14.123c0.47043-0.3485 0.83046-0.75792 1.0919-1.201-0.65195-1.1603-1.8678-2.0137-3.4727-2.0138z" color="#000000" fill="#666" style="-inkscape-stroke:none;paint-order:markers stroke fill"/>
</g>
<g>
<rect x="66.162" y="147" width="76" height="4" fill="#577873" style="paint-order:markers stroke fill"/>
<rect x="66.162" y="151" width="76" height="4" fill="#1f302d" style="paint-order:markers stroke fill"/>
</g>
<g transform="translate(-3.255 3)" stroke-linecap="round" stroke-linejoin="round" stroke-width=".242">
<path d="m74.417 144h8v4h-8z" fill="#ffc352"/>
<path d="m74.417 148h8v4h-8z" fill="#745821"/>
</g>
<g transform="matrix(1.5 0 0 1 -40.463 3)" stroke-linecap="round" stroke-linejoin="round" stroke-width=".242">
<path d="m74.417 144h8v4h-8z" fill="#ffc352"/>
<path d="m74.417 148h8v4h-8z" fill="#fe7512"/>
</g>
<g transform="matrix(1.5 0 0 1 -22.463 3)" stroke-linecap="round" stroke-linejoin="round" stroke-width=".242">
<path d="m74.417 144h8v4h-8z" fill="#ffc352"/>
<path d="m74.417 148h8v4h-8z" fill="#fe7512"/>
</g>
<g transform="matrix(1.5 0 0 1 -4.4633 3)" stroke-linecap="round" stroke-linejoin="round" stroke-width=".242">
<path d="m74.417 144h8v4h-8z" fill="#ffc352"/>
<path d="m74.417 148h8v4h-8z" fill="#fe7512"/>
</g>
<g transform="matrix(1.5 0 0 1 13.537 3)" stroke-linecap="round" stroke-linejoin="round" stroke-width=".242">
<path d="m74.417 144h8v4h-8z" fill="#ffc352"/>
<path d="m74.417 148h8v4h-8z" fill="#fe7512"/>
</g>
</g>
</svg>
