<svg width="192" height="192" viewBox="-6 0 96 96" xmlns="http://www.w3.org/2000/svg"><path style="fill:gray;stroke:none;stroke-width:8;stroke-linecap:round;stroke-linejoin:round;paint-order:markers stroke fill" d="M66.2 71h54.6a6.3 6.3 28.2 0 1 5.2 2.8l4.5 6.7a5.6 5.6 28.2 0 0 4.7 2.5h7a4 4 45 0 1 4 4v76a4 4 135 0 1-4 4h-76a4 4 45 0 1-4-4V75a4 4 135 0 1 4-4z" transform="translate(-62.2 -71)"/><path style="fill:#000;stroke:#4d4d4d;stroke-width:8;stroke-linecap:round;stroke-linejoin:round;stroke-dasharray:none;paint-order:markers stroke fill" d="M66.2 147h76v16h-76z" transform="translate(-62.2 -71)"/><path style="fill:#577873;fill-opacity:1;stroke:none;stroke-width:8;stroke-linecap:round;stroke-linejoin:round;stroke-dasharray:none;paint-order:markers stroke fill" d="M66.2 147h76v4h-76z" transform="translate(-62.2 -71)"/><path style="fill:#1f302d;fill-opacity:1;stroke:none;stroke-width:8;stroke-linecap:round;stroke-linejoin:round;stroke-dasharray:none;paint-order:markers stroke fill" d="M66.2 151h76v4h-76z" transform="translate(-62.2 -71)"/><path style="fill:#ffc352;fill-opacity:1;stroke-width:.241996;stroke-linecap:round;stroke-linejoin:round" d="M74.4 144h8v4h-8z" transform="matrix(1.5 0 0 1 -102.6 -68)"/><path style="fill:#fe7512;fill-opacity:1;stroke-width:.241996;stroke-linecap:round;stroke-linejoin:round" d="M74.4 148h8v4h-8z" transform="matrix(1.5 0 0 1 -102.6 -68)"/><path style="fill:#ffc352;fill-opacity:1;stroke-width:.241996;stroke-linecap:round;stroke-linejoin:round" d="M74.4 144h8v4h-8z" transform="matrix(1.5 0 0 1 -84.6 -68)"/><path style="fill:#fe7512;fill-opacity:1;stroke-width:.241996;stroke-linecap:round;stroke-linejoin:round" d="M74.4 148h8v4h-8z" transform="matrix(1.5 0 0 1 -84.6 -68)"/><path style="fill:#ffc352;fill-opacity:1;stroke-width:.241996;stroke-linecap:round;stroke-linejoin:round" d="M74.4 144h8v4h-8z" transform="matrix(1.5 0 0 1 -66.6 -68)"/><path style="fill:#fe7512;fill-opacity:1;stroke-width:.241996;stroke-linecap:round;stroke-linejoin:round" d="M74.4 148h8v4h-8z" transform="matrix(1.5 0 0 1 -66.6 -68)"/><path style="fill:#ffc352;fill-opacity:1;stroke-width:.241996;stroke-linecap:round;stroke-linejoin:round" d="M74.4 144h8v4h-8z" transform="matrix(1.5 0 0 1 -48.6 -68)"/><path style="fill:#fe7512;fill-opacity:1;stroke-width:.241996;stroke-linecap:round;stroke-linejoin:round" d="M74.4 148h8v4h-8z" transform="matrix(1.5 0 0 1 -48.6 -68)"/><path style="fill:#333;stroke-linejoin:round" d="M84.2 101a4 4 0 0 0-2.5 7.1l20 16a4 4 0 0 0 5 0l20-16a4 4 0 0 0-2.5-7.1Z" transform="translate(-62.2 -71)"/><path style="fill:#666;stroke-linejoin:round" d="M84.2 105a4 4 0 0 0-3.5 2 4 4 0 0 0 1 1.1l20 16a4 4 0 0 0 5 0l20-16a4 4 0 0 0 1-1.1 4 4 0 0 0-3.5-2Z" transform="translate(-62.2 -71)"/></svg>