<svg width="192" height="192" viewBox="-6 0 96 96" xmlns="http://www.w3.org/2000/svg"><path style="color:#000;fill:gray;stroke-linecap:round;stroke-linejoin:round;-inkscape-stroke:none;paint-order:markers stroke fill" d="M66.2 71a4 4 0 0 0-4 4v88a4 4 0 0 0 4 4h76a4 4 0 0 0 4-4V87a4 4 0 0 0-4-4h-12.4L119 72.2a4 4 0 0 0-2.8-1.2Z" transform="translate(-62.2 -71)"/><path style="color:#000;fill:#4d4d4d;stroke-linecap:round;stroke-linejoin:round;-inkscape-stroke:none;paint-order:markers stroke fill" d="M66.2 143a4 4 0 0 0-4 4v16a4 4 0 0 0 4 4h76a4 4 0 0 0 4-4v-16a4 4 0 0 0-4-4zm4 8h68v8h-68Z" transform="translate(-62.2 -71)"/><path style="color:#000;fill:#000;stroke-width:8;stroke-linecap:round;stroke-linejoin:round;-inkscape-stroke:none;paint-order:markers stroke fill" d="M66.2 147h76v16h-76Z" transform="translate(-62.2 -71)"/><path style="fill:#577873;stroke-width:8;stroke-linecap:round;stroke-linejoin:round;paint-order:markers stroke fill" d="M66.2 147h76v4h-76Z" transform="translate(-62.2 -71)"/><path style="fill:#1f302d;stroke-width:8;stroke-linecap:round;stroke-linejoin:round;paint-order:markers stroke fill" d="M66.2 151h76v4h-76Z" transform="translate(-62.2 -71)"/><path style="fill:#ffc352;fill-opacity:1;stroke-width:.241996;stroke-linecap:round;stroke-linejoin:round" d="M74.4 144h8v4h-8z" transform="matrix(1.5 0 0 1 -102.6 -68)"/><path style="fill:#fe7512;fill-opacity:1;stroke-width:.241996;stroke-linecap:round;stroke-linejoin:round" d="M74.4 148h8v4h-8z" transform="matrix(1.5 0 0 1 -102.6 -68)"/><path style="fill:#ffc352;fill-opacity:1;stroke-width:.241996;stroke-linecap:round;stroke-linejoin:round" d="M74.4 144h8v4h-8z" transform="matrix(1.5 0 0 1 -84.6 -68)"/><path style="fill:#fe7512;fill-opacity:1;stroke-width:.241996;stroke-linecap:round;stroke-linejoin:round" d="M74.4 148h8v4h-8z" transform="matrix(1.5 0 0 1 -84.6 -68)"/><path style="fill:#ffc352;fill-opacity:1;stroke-width:.241996;stroke-linecap:round;stroke-linejoin:round" d="M74.4 144h8v4h-8z" transform="matrix(1.5 0 0 1 -66.6 -68)"/><path style="fill:#fe7512;fill-opacity:1;stroke-width:.241996;stroke-linecap:round;stroke-linejoin:round" d="M74.4 148h8v4h-8z" transform="matrix(1.5 0 0 1 -66.6 -68)"/><path style="fill:#ffc352;fill-opacity:1;stroke-width:.241996;stroke-linecap:round;stroke-linejoin:round" d="M74.4 144h8v4h-8z" transform="matrix(1.5 0 0 1 -48.6 -68)"/><path style="fill:#fe7512;fill-opacity:1;stroke-width:.241996;stroke-linecap:round;stroke-linejoin:round" d="M74.4 148h8v4h-8z" transform="matrix(1.5 0 0 1 -48.6 -68)"/><path style="color:#000;fill:#333;stroke-linejoin:round;-inkscape-stroke:none" d="M84.2 101a4 4 0 0 0-2.9 6.8l20 20a4 4 0 0 0 5.7 0l20-20a4 4 0 0 0-2.8-6.8z" transform="translate(-62.2 -71)"/><path style="color:#000;fill:#666;stroke-linejoin:round;-inkscape-stroke:none" d="M84.2 105a4 4 0 0 0-3.5 2l.6.8 20 20a4 4 0 0 0 5.7 0l20-20c.2-.2.5-.5.6-.8a4 4 0 0 0-3.4-2h-40z" transform="translate(-62.2 -71)"/></svg>